<svg xmlns="http://www.w3.org/2000/svg" width="234.55" height="35" viewBox="0 0 234.55 35"><rect class="svg__rect" x="0" y="0" width="109.03" height="35" fill="#3B5998"/><rect class="svg__rect" x="107.03" y="0" width="127.52000000000001" height="35" fill="#A5A2A2"/><path class="svg__text" d="M15.70 22L14.22 22L14.22 13.47L19.64 13.47L19.64 14.66L15.70 14.66L15.70 17.20L19.13 17.20L19.13 18.38L15.70 18.38L15.70 22ZM24.58 22L23.04 22L26.26 13.47L27.59 13.47L30.82 22L29.27 22L28.57 20.01L25.27 20.01L24.58 22ZM26.92 15.28L25.68 18.82L28.16 18.82L26.92 15.28ZM34.50 18.19L34.50 18.19L34.50 17.39Q34.50 16.19 34.93 15.27Q35.36 14.35 36.16 13.85Q36.96 13.35 38.01 13.35L38.01 13.35Q39.42 13.35 40.28 14.12Q41.14 14.89 41.28 16.29L41.28 16.29L39.81 16.29Q39.70 15.37 39.27 14.96Q38.84 14.55 38.01 14.55L38.01 14.55Q37.04 14.55 36.52 15.26Q36.00 15.96 35.99 17.33L35.99 17.33L35.99 18.09Q35.99 19.47 36.49 20.20Q36.98 20.92 37.94 20.92L37.94 20.92Q38.81 20.92 39.25 20.53Q39.69 20.14 39.81 19.22L39.81 19.22L41.28 19.22Q41.15 20.59 40.27 21.35Q39.39 22.12 37.94 22.12L37.94 22.12Q36.92 22.12 36.14 21.63Q35.36 21.15 34.94 20.26Q34.52 19.37 34.50 18.19ZM51.17 22L45.59 22L45.59 13.47L51.13 13.47L51.13 14.66L47.08 14.66L47.08 17.02L50.58 17.02L50.58 18.19L47.08 18.19L47.08 20.82L51.17 20.82L51.17 22ZM58.48 22L55.37 22L55.37 13.47L58.29 13.47Q59.74 13.47 60.49 14.05Q61.25 14.63 61.25 15.78L61.25 15.78Q61.25 16.36 60.93 16.83Q60.62 17.30 60.01 17.56L60.01 17.56Q60.70 17.75 61.08 18.26Q61.46 18.78 61.46 19.51L61.46 19.51Q61.46 20.71 60.68 21.36Q59.91 22 58.48 22L58.48 22ZM56.85 18.15L56.85 20.82L58.50 20.82Q59.19 20.82 59.59 20.47Q59.98 20.13 59.98 19.51L59.98 19.51Q59.98 18.18 58.62 18.15L58.62 18.15L56.85 18.15ZM56.85 14.66L56.85 17.06L58.30 17.06Q58.99 17.06 59.38 16.75Q59.77 16.43 59.77 15.86L59.77 15.86Q59.77 15.23 59.41 14.95Q59.05 14.66 58.29 14.66L58.29 14.66L56.85 14.66ZM65.66 18.00L65.66 18.00L65.66 17.52Q65.66 16.28 66.10 15.32Q66.54 14.37 67.35 13.86Q68.15 13.35 69.20 13.35Q70.24 13.35 71.04 13.85Q71.85 14.35 72.29 15.29Q72.73 16.23 72.73 17.48L72.73 17.48L72.73 17.96Q72.73 19.21 72.30 20.16Q71.87 21.10 71.06 21.61Q70.26 22.12 69.21 22.12L69.21 22.12Q68.17 22.12 67.36 21.61Q66.55 21.10 66.10 20.17Q65.66 19.23 65.66 18.00ZM67.14 17.46L67.14 17.96Q67.14 19.36 67.69 20.13Q68.23 20.90 69.21 20.90L69.21 20.90Q70.19 20.90 70.72 20.15Q71.25 19.40 71.25 17.96L71.25 17.96L71.25 17.51Q71.25 16.09 70.72 15.34Q70.18 14.58 69.20 14.58L69.20 14.58Q68.23 14.58 67.69 15.33Q67.15 16.09 67.14 17.46L67.14 17.46ZM76.93 18.00L76.93 18.00L76.93 17.52Q76.93 16.28 77.37 15.32Q77.81 14.37 78.62 13.86Q79.43 13.35 80.47 13.35Q81.51 13.35 82.32 13.85Q83.12 14.35 83.56 15.29Q84.00 16.23 84.01 17.48L84.01 17.48L84.01 17.96Q84.01 19.21 83.57 20.16Q83.14 21.10 82.34 21.61Q81.53 22.12 80.48 22.12L80.48 22.12Q79.44 22.12 78.63 21.61Q77.82 21.10 77.38 20.17Q76.94 19.23 76.93 18.00ZM78.41 17.46L78.41 17.96Q78.41 19.36 78.96 20.13Q79.51 20.90 80.48 20.90L80.48 20.90Q81.47 20.90 82.00 20.15Q82.53 19.40 82.53 17.96L82.53 17.96L82.53 17.51Q82.53 16.09 81.99 15.34Q81.45 14.58 80.47 14.58L80.47 14.58Q79.51 14.58 78.97 15.33Q78.42 16.09 78.41 17.46L78.41 17.46ZM89.96 22L88.47 22L88.47 13.47L89.96 13.47L89.96 17.47L90.78 16.46L93.27 13.47L95.06 13.47L91.89 17.25L95.25 22L93.49 22L90.92 18.31L89.96 19.34L89.96 22Z" fill="#FFFFFF"/><path class="svg__text" d="M123.60 22L121.22 22L121.22 13.60L123.60 13.60L123.60 22ZM130.19 22L127.76 22L131.47 13.60L133.82 13.60L137.53 22L135.06 22L134.40 20.37L130.85 20.37L130.19 22ZM132.63 15.93L131.54 18.61L133.70 18.61L132.63 15.93ZM143.88 22L141.68 22L141.68 13.60L143.64 13.60L146.59 18.45L149.48 13.60L151.43 13.60L151.45 22L149.27 22L149.25 17.55L147.09 21.17L146.03 21.17L143.88 17.67L143.88 22ZM158.03 22L155.61 22L159.32 13.60L161.66 13.60L165.37 22L162.91 22L162.25 20.37L158.69 20.37L158.03 22ZM160.47 15.93L159.39 18.61L161.55 18.61L160.47 15.93ZM174.07 22L169.53 22L169.53 13.60L173.83 13.60Q175.43 13.60 176.28 14.19Q177.12 14.79 177.12 15.79L177.12 15.79Q177.12 16.39 176.82 16.87Q176.52 17.34 175.99 17.62L175.99 17.62Q176.71 17.87 177.11 18.41Q177.52 18.94 177.52 19.70L177.52 19.70Q177.52 20.80 176.63 21.40Q175.75 22 174.07 22L174.07 22ZM171.88 18.58L171.88 20.28L173.88 20.28Q175.12 20.28 175.12 19.43L175.12 19.43Q175.12 18.58 173.88 18.58L173.88 18.58L171.88 18.58ZM171.88 15.31L171.88 16.94L173.51 16.94Q174.71 16.94 174.71 16.12L174.71 16.12Q174.71 15.31 173.51 15.31L173.51 15.31L171.88 15.31ZM184.62 22L182.24 22L182.24 13.60L184.62 13.60L184.62 16.76L187.86 16.76L187.86 13.60L190.23 13.60L190.23 22L187.86 22L187.86 18.72L184.62 18.72L184.62 22ZM197.77 22L195.39 22L195.39 13.60L197.77 13.60L197.77 22ZM202.30 16.30L202.30 16.30Q202.30 15.45 202.74 14.80Q203.17 14.14 203.92 13.79Q204.67 13.43 205.59 13.43L205.59 13.43Q207.40 13.43 208.44 14.50Q209.49 15.57 209.49 17.57L209.49 17.57Q209.49 19.01 208.93 20.05Q208.37 21.09 207.36 21.63Q206.34 22.17 205.01 22.17L205.01 22.17Q204.30 22.17 203.66 22.01Q203.01 21.84 202.55 21.55L202.55 21.55L203.41 19.85Q204.02 20.28 204.96 20.28L204.96 20.28Q205.86 20.28 206.42 19.79Q206.98 19.29 207.08 18.34L207.08 18.34Q206.35 18.95 205.19 18.95L205.19 18.95Q204.40 18.95 203.74 18.62Q203.08 18.29 202.69 17.68Q202.30 17.08 202.30 16.30ZM204.60 16.19L204.60 16.19Q204.60 16.67 204.92 16.96Q205.24 17.25 205.76 17.25L205.76 17.25Q206.27 17.25 206.59 16.96Q206.92 16.66 206.92 16.18L206.92 16.18Q206.92 15.71 206.60 15.42Q206.28 15.12 205.75 15.12L205.75 15.12Q205.24 15.12 204.92 15.41Q204.60 15.70 204.60 16.19ZM216.80 22L213.21 13.60L215.78 13.60L218.06 19.07L220.39 13.60L222.74 13.60L219.14 22L216.80 22Z" fill="#FFFFFF" x="120.03"/></svg>