<svg xmlns="http://www.w3.org/2000/svg" width="253.45999999999998" height="35" viewBox="0 0 253.45999999999998 35"><rect class="svg__rect" x="0" y="0" width="75.6" height="35" fill="#DB4437"/><rect class="svg__rect" x="73.6" y="0" width="179.85999999999999" height="35" fill="#A5A2A2"/><path class="svg__text" d="M13.97 18.13L13.97 18.13L13.97 17.46Q13.97 15.53 14.90 14.44Q15.82 13.35 17.48 13.35L17.48 13.35Q18.90 13.35 19.74 14.05Q20.58 14.76 20.75 16.08L20.75 16.08L19.30 16.08Q19.05 14.54 17.51 14.54L17.51 14.54Q16.51 14.54 16.00 15.26Q15.48 15.98 15.46 17.37L15.46 17.37L15.46 18.02Q15.46 19.40 16.04 20.17Q16.63 20.93 17.66 20.93L17.66 20.93Q18.80 20.93 19.28 20.42L19.28 20.42L19.28 18.75L17.52 18.75L17.52 17.62L20.76 17.62L20.76 20.89Q20.29 21.50 19.47 21.81Q18.65 22.12 17.61 22.12L17.61 22.12Q16.54 22.12 15.71 21.63Q14.89 21.14 14.44 20.24Q13.99 19.33 13.97 18.13ZM26.85 22L25.37 22L25.37 13.47L27.30 13.47L29.76 20.01L32.21 13.47L34.13 13.47L34.13 22L32.65 22L32.65 19.19L32.80 15.43L30.28 22L29.22 22L26.70 15.43L26.85 19.19L26.85 22ZM39.65 22L38.11 22L41.33 13.47L42.66 13.47L45.89 22L44.34 22L43.64 20.01L40.34 20.01L39.65 22ZM41.99 15.28L40.75 18.82L43.23 18.82L41.99 15.28ZM51.41 22L49.93 22L49.93 13.47L51.41 13.47L51.41 22ZM61.57 22L56.22 22L56.22 13.47L57.70 13.47L57.70 20.82L61.57 20.82L61.57 22Z" fill="#FFFFFF"/><path class="svg__text" d="M89.21 22L86.78 22L90.49 13.60L92.83 13.60L96.55 22L94.08 22L93.42 20.37L89.87 20.37L89.21 22ZM91.64 15.93L90.56 18.61L92.72 18.61L91.64 15.93ZM105.24 22L100.70 22L100.70 13.60L105.00 13.60Q106.61 13.60 107.45 14.19Q108.29 14.79 108.29 15.79L108.29 15.79Q108.29 16.39 107.99 16.87Q107.70 17.34 107.16 17.62L107.16 17.62Q107.88 17.87 108.29 18.41Q108.69 18.94 108.69 19.70L108.69 19.70Q108.69 20.80 107.81 21.40Q106.92 22 105.24 22L105.24 22ZM103.06 18.58L103.06 20.28L105.05 20.28Q106.30 20.28 106.30 19.43L106.30 19.43Q106.30 18.58 105.05 18.58L105.05 18.58L103.06 18.58ZM103.06 15.31L103.06 16.94L104.69 16.94Q105.89 16.94 105.89 16.12L105.89 16.12Q105.89 15.31 104.69 15.31L104.69 15.31L103.06 15.31ZM115.79 22L113.41 22L113.41 13.60L115.79 13.60L115.79 16.76L119.03 16.76L119.03 13.60L121.40 13.60L121.40 22L119.03 22L119.03 18.72L115.79 18.72L115.79 22ZM128.94 22L126.57 22L126.57 13.60L128.94 13.60L128.94 22ZM136.45 22L134.12 22L134.12 13.60L136.07 13.60L139.78 18.07L139.78 13.60L142.11 13.60L142.11 22L140.16 22L136.45 17.52L136.45 22ZM148.69 22L146.26 22L149.97 13.60L152.32 13.60L156.03 22L153.57 22L152.90 20.37L149.35 20.37L148.69 22ZM151.13 15.93L150.04 18.61L152.21 18.61L151.13 15.93ZM162.77 22L159.18 13.60L161.75 13.60L164.03 19.07L166.36 13.60L168.71 13.60L165.11 22L162.77 22ZM181.25 22L178.82 22L182.53 13.60L184.88 13.60L188.59 22L186.13 22L185.46 20.37L181.91 20.37L181.25 22ZM183.69 15.93L182.60 18.61L184.77 18.61L183.69 15.93ZM195.08 22L192.75 22L192.75 13.60L194.70 13.60L198.41 18.07L198.41 13.60L200.74 13.60L200.74 22L198.79 22L195.08 17.52L195.08 22ZM207.32 22L204.89 22L208.60 13.60L210.95 13.60L214.66 22L212.19 22L211.53 20.37L207.98 20.37L207.32 22ZM209.76 15.93L208.67 18.61L210.83 18.61L209.76 15.93ZM221.15 22L218.82 22L218.82 13.60L220.77 13.60L224.48 18.07L224.48 13.60L226.81 13.60L226.81 22L224.86 22L221.15 17.52L221.15 22ZM235.94 22L231.97 22L231.97 13.60L235.94 13.60Q237.32 13.60 238.39 14.12Q239.46 14.63 240.05 15.58Q240.64 16.53 240.64 17.80L240.64 17.80Q240.64 19.07 240.05 20.02Q239.46 20.97 238.39 21.48Q237.32 22 235.94 22L235.94 22ZM234.35 15.50L234.35 20.10L235.85 20.10Q236.93 20.10 237.58 19.49Q238.23 18.88 238.23 17.80L238.23 17.80Q238.23 16.72 237.58 16.11Q236.93 15.50 235.85 15.50L235.85 15.50L234.35 15.50Z" fill="#FFFFFF" x="86.6"/></svg>