<svg xmlns="http://www.w3.org/2000/svg" width="243.44" height="35" viewBox="0 0 243.44 35"><rect class="svg__rect" x="0" y="0" width="117.92" height="35" fill="#517FA8"/><rect class="svg__rect" x="115.92" y="0" width="127.51999999999998" height="35" fill="#A5A2A2"/><path class="svg__text" d="M15.78 22L14.31 22L14.31 13.47L15.78 13.47L15.78 22ZM22.07 22L20.59 22L20.59 13.47L22.07 13.47L25.89 19.54L25.89 13.47L27.36 13.47L27.36 22L25.88 22L22.07 15.95L22.07 22ZM31.67 19.42L31.67 19.42L33.15 19.42Q33.15 20.15 33.63 20.55Q34.11 20.95 35.01 20.95L35.01 20.95Q35.78 20.95 36.17 20.63Q36.56 20.32 36.56 19.80L36.56 19.80Q36.56 19.24 36.16 18.94Q35.77 18.63 34.74 18.32Q33.71 18.01 33.10 17.63L33.10 17.63Q31.93 16.90 31.93 15.72L31.93 15.72Q31.93 14.69 32.77 14.02Q33.61 13.35 34.95 13.35L34.95 13.35Q35.84 13.35 36.54 13.68Q37.24 14.01 37.64 14.61Q38.04 15.22 38.04 15.96L38.04 15.96L36.56 15.96Q36.56 15.29 36.14 14.91Q35.72 14.54 34.94 14.54L34.94 14.54Q34.22 14.54 33.81 14.85Q33.41 15.16 33.41 15.71L33.41 15.71Q33.41 16.18 33.85 16.50Q34.28 16.81 35.28 17.10Q36.27 17.40 36.88 17.78Q37.48 18.16 37.76 18.65Q38.04 19.13 38.04 19.79L38.04 19.79Q38.04 20.86 37.22 21.49Q36.41 22.12 35.01 22.12L35.01 22.12Q34.08 22.12 33.30 21.77Q32.53 21.43 32.10 20.83Q31.67 20.22 31.67 19.42ZM44.01 14.66L41.38 14.66L41.38 13.47L48.14 13.47L48.14 14.66L45.48 14.66L45.48 22L44.01 22L44.01 14.66ZM52.68 22L51.14 22L54.36 13.47L55.69 13.47L58.92 22L57.37 22L56.67 20.01L53.37 20.01L52.68 22ZM55.02 15.28L53.79 18.82L56.26 18.82L55.02 15.28ZM62.63 18.13L62.63 18.13L62.63 17.46Q62.63 15.53 63.55 14.44Q64.48 13.35 66.14 13.35L66.14 13.35Q67.56 13.35 68.40 14.05Q69.24 14.76 69.41 16.08L69.41 16.08L67.95 16.08Q67.71 14.54 66.17 14.54L66.17 14.54Q65.17 14.54 64.65 15.26Q64.13 15.98 64.12 17.37L64.12 17.37L64.12 18.02Q64.12 19.40 64.70 20.17Q65.28 20.93 66.32 20.93L66.32 20.93Q67.46 20.93 67.94 20.42L67.94 20.42L67.94 18.75L66.18 18.75L66.18 17.62L69.41 17.62L69.41 20.89Q68.95 21.50 68.13 21.81Q67.31 22.12 66.27 22.12L66.27 22.12Q65.19 22.12 64.37 21.63Q63.54 21.14 63.09 20.24Q62.64 19.33 62.63 18.13ZM75.51 22L74.03 22L74.03 13.47L77.03 13.47Q78.51 13.47 79.31 14.13Q80.11 14.79 80.11 16.05L80.11 16.05Q80.11 16.90 79.70 17.48Q79.29 18.06 78.55 18.37L78.55 18.37L80.46 21.92L80.46 22L78.88 22L77.16 18.71L75.51 18.71L75.51 22ZM75.51 14.66L75.51 17.52L77.04 17.52Q77.79 17.52 78.21 17.15Q78.63 16.77 78.63 16.11L78.63 16.11Q78.63 15.43 78.24 15.05Q77.85 14.68 77.08 14.66L77.08 14.66L75.51 14.66ZM85.29 22L83.74 22L86.97 13.47L88.30 13.47L91.53 22L89.98 22L89.28 20.01L85.98 20.01L85.29 22ZM87.63 15.28L86.39 18.82L88.87 18.82L87.63 15.28ZM96.96 22L95.48 22L95.48 13.47L97.40 13.47L99.86 20.01L102.32 13.47L104.23 13.47L104.23 22L102.76 22L102.76 19.19L102.90 15.43L100.39 22L99.32 22L96.81 15.43L96.96 19.19L96.96 22Z" fill="#FFFFFF"/><path class="svg__text" d="M132.49 22L130.11 22L130.11 13.60L132.49 13.60L132.49 22ZM139.08 22L136.65 22L140.36 13.60L142.71 13.60L146.42 22L143.95 22L143.29 20.37L139.74 20.37L139.08 22ZM141.52 15.93L140.43 18.61L142.59 18.61L141.52 15.93ZM152.77 22L150.57 22L150.57 13.60L152.53 13.60L155.48 18.45L158.37 13.60L160.32 13.60L160.34 22L158.16 22L158.14 17.55L155.98 21.17L154.92 21.17L152.77 17.67L152.77 22ZM166.92 22L164.50 22L168.21 13.60L170.55 13.60L174.26 22L171.80 22L171.14 20.37L167.58 20.37L166.92 22ZM169.36 15.93L168.28 18.61L170.44 18.61L169.36 15.93ZM182.96 22L178.42 22L178.42 13.60L182.72 13.60Q184.32 13.60 185.17 14.19Q186.01 14.79 186.01 15.79L186.01 15.79Q186.01 16.39 185.71 16.87Q185.41 17.34 184.88 17.62L184.88 17.62Q185.60 17.87 186.00 18.41Q186.41 18.94 186.41 19.70L186.41 19.70Q186.41 20.80 185.52 21.40Q184.64 22 182.96 22L182.96 22ZM180.77 18.58L180.77 20.28L182.77 20.28Q184.01 20.28 184.01 19.43L184.01 19.43Q184.01 18.58 182.77 18.58L182.77 18.58L180.77 18.58ZM180.77 15.31L180.77 16.94L182.40 16.94Q183.60 16.94 183.60 16.12L183.60 16.12Q183.60 15.31 182.40 15.31L182.40 15.31L180.77 15.31ZM193.51 22L191.13 22L191.13 13.60L193.51 13.60L193.51 16.76L196.75 16.76L196.75 13.60L199.12 13.60L199.12 22L196.75 22L196.75 18.72L193.51 18.72L193.51 22ZM206.66 22L204.28 22L204.28 13.60L206.66 13.60L206.66 22ZM211.19 16.30L211.19 16.30Q211.19 15.45 211.63 14.80Q212.06 14.14 212.81 13.79Q213.56 13.43 214.48 13.43L214.48 13.43Q216.29 13.43 217.33 14.50Q218.38 15.57 218.38 17.57L218.38 17.57Q218.38 19.01 217.82 20.05Q217.26 21.09 216.25 21.63Q215.23 22.17 213.90 22.17L213.90 22.17Q213.19 22.17 212.55 22.01Q211.90 21.84 211.44 21.55L211.44 21.55L212.30 19.85Q212.91 20.28 213.85 20.28L213.85 20.28Q214.75 20.28 215.31 19.79Q215.87 19.29 215.97 18.34L215.97 18.34Q215.24 18.95 214.08 18.95L214.08 18.95Q213.29 18.95 212.63 18.62Q211.97 18.29 211.58 17.68Q211.19 17.08 211.19 16.30ZM213.49 16.19L213.49 16.19Q213.49 16.67 213.81 16.96Q214.13 17.25 214.65 17.25L214.65 17.25Q215.16 17.25 215.48 16.96Q215.81 16.66 215.81 16.18L215.81 16.18Q215.81 15.71 215.49 15.42Q215.17 15.12 214.64 15.12L214.64 15.12Q214.13 15.12 213.81 15.41Q213.49 15.70 213.49 16.19ZM225.69 22L222.10 13.60L224.67 13.60L226.95 19.07L229.28 13.60L231.63 13.60L228.03 22L225.69 22Z" fill="#FFFFFF" x="128.92000000000002"/></svg>