<svg xmlns="http://www.w3.org/2000/svg" width="225.18" height="35" viewBox="0 0 225.18 35"><rect class="svg__rect" x="0" y="0" width="99.66" height="35" fill="#0E76A8"/><rect class="svg__rect" x="97.66" y="0" width="127.52000000000001" height="35" fill="#A5A2A2"/><path class="svg__text" d="M19.57 22L14.22 22L14.22 13.47L15.70 13.47L15.70 20.82L19.57 20.82L19.57 22ZM25.26 22L23.79 22L23.79 13.47L25.26 13.47L25.26 22ZM31.56 22L30.07 22L30.07 13.47L31.56 13.47L35.37 19.54L35.37 13.47L36.84 13.47L36.84 22L35.36 22L31.56 15.95L31.56 22ZM43.06 22L41.58 22L41.58 13.47L43.06 13.47L43.06 17.47L43.88 16.46L46.38 13.47L48.17 13.47L45.00 17.25L48.35 22L46.60 22L44.03 18.31L43.06 19.34L43.06 22ZM57.71 22L52.13 22L52.13 13.47L57.67 13.47L57.67 14.66L53.62 14.66L53.62 17.02L57.12 17.02L57.12 18.19L53.62 18.19L53.62 20.82L57.71 20.82L57.71 22ZM64.36 22L61.91 22L61.91 13.47L64.43 13.47Q65.56 13.47 66.43 13.97Q67.31 14.48 67.79 15.40Q68.27 16.33 68.27 17.52L68.27 17.52L68.27 17.95Q68.27 19.16 67.79 20.08Q67.30 21.00 66.41 21.50Q65.52 22 64.36 22L64.36 22ZM63.39 14.66L63.39 20.82L64.36 20.82Q65.52 20.82 66.15 20.09Q66.77 19.36 66.78 17.99L66.78 17.99L66.78 17.52Q66.78 16.13 66.18 15.40Q65.57 14.66 64.43 14.66L64.43 14.66L63.39 14.66ZM74.30 22L72.82 22L72.82 13.47L74.30 13.47L74.30 22ZM80.59 22L79.11 22L79.11 13.47L80.59 13.47L84.41 19.54L84.41 13.47L85.88 13.47L85.88 22L84.39 22L80.59 15.95L80.59 22Z" fill="#FFFFFF"/><path class="svg__text" d="M114.23 22L111.85 22L111.85 13.60L114.23 13.60L114.23 22ZM120.82 22L118.39 22L122.10 13.60L124.45 13.60L128.16 22L125.69 22L125.03 20.37L121.48 20.37L120.82 22ZM123.26 15.93L122.17 18.61L124.33 18.61L123.26 15.93ZM134.51 22L132.31 22L132.31 13.60L134.27 13.60L137.22 18.45L140.11 13.60L142.06 13.60L142.08 22L139.90 22L139.88 17.55L137.72 21.17L136.66 21.17L134.51 17.67L134.51 22ZM148.66 22L146.24 22L149.95 13.60L152.29 13.60L156.00 22L153.54 22L152.88 20.37L149.32 20.37L148.66 22ZM151.10 15.93L150.02 18.61L152.18 18.61L151.10 15.93ZM164.70 22L160.16 22L160.16 13.60L164.46 13.60Q166.06 13.60 166.91 14.19Q167.75 14.79 167.75 15.79L167.75 15.79Q167.75 16.39 167.45 16.87Q167.15 17.34 166.62 17.62L166.62 17.62Q167.34 17.87 167.74 18.41Q168.15 18.94 168.15 19.70L168.15 19.70Q168.15 20.80 167.26 21.40Q166.38 22 164.70 22L164.70 22ZM162.51 18.58L162.51 20.28L164.51 20.28Q165.75 20.28 165.75 19.43L165.75 19.43Q165.75 18.58 164.51 18.58L164.51 18.58L162.51 18.58ZM162.51 15.31L162.51 16.94L164.14 16.94Q165.34 16.94 165.34 16.12L165.34 16.12Q165.34 15.31 164.14 15.31L164.14 15.31L162.51 15.31ZM175.25 22L172.87 22L172.87 13.60L175.25 13.60L175.25 16.76L178.49 16.76L178.49 13.60L180.86 13.60L180.86 22L178.49 22L178.49 18.72L175.25 18.72L175.25 22ZM188.40 22L186.02 22L186.02 13.60L188.40 13.60L188.40 22ZM192.93 16.30L192.93 16.30Q192.93 15.45 193.37 14.80Q193.80 14.14 194.55 13.79Q195.30 13.43 196.22 13.43L196.22 13.43Q198.03 13.43 199.07 14.50Q200.12 15.57 200.12 17.57L200.12 17.57Q200.12 19.01 199.56 20.05Q199.00 21.09 197.99 21.63Q196.97 22.17 195.64 22.17L195.64 22.17Q194.93 22.17 194.29 22.01Q193.64 21.84 193.18 21.55L193.18 21.55L194.04 19.85Q194.65 20.28 195.59 20.28L195.59 20.28Q196.49 20.28 197.05 19.79Q197.61 19.29 197.71 18.34L197.71 18.34Q196.98 18.95 195.82 18.95L195.82 18.95Q195.03 18.95 194.37 18.62Q193.71 18.29 193.32 17.68Q192.93 17.08 192.93 16.30ZM195.23 16.19L195.23 16.19Q195.23 16.67 195.55 16.96Q195.87 17.25 196.39 17.25L196.39 17.25Q196.90 17.25 197.22 16.96Q197.55 16.66 197.55 16.18L197.55 16.18Q197.55 15.71 197.23 15.42Q196.91 15.12 196.38 15.12L196.38 15.12Q195.87 15.12 195.55 15.41Q195.23 15.70 195.23 16.19ZM207.43 22L203.84 13.60L206.41 13.60L208.69 19.07L211.02 13.60L213.37 13.60L209.77 22L207.43 22Z" fill="#FFFFFF" x="110.66"/></svg>