<svg xmlns="http://www.w3.org/2000/svg" width="207.61" height="35" viewBox="0 0 207.61 35"><rect class="svg__rect" x="0" y="0" width="82.09" height="35" fill="#FF4301"/><rect class="svg__rect" x="80.09" y="0" width="127.52000000000001" height="35" fill="#A5A2A2"/><path class="svg__text" d="M15.70 22L14.22 22L14.22 13.47L17.22 13.47Q18.69 13.47 19.50 14.13Q20.30 14.79 20.30 16.05L20.30 16.05Q20.30 16.90 19.89 17.48Q19.47 18.06 18.73 18.37L18.73 18.37L20.65 21.92L20.65 22L19.06 22L17.35 18.71L15.70 18.71L15.70 22ZM15.70 14.66L15.70 17.52L17.22 17.52Q17.97 17.52 18.39 17.15Q18.82 16.77 18.82 16.11L18.82 16.11Q18.82 15.43 18.43 15.05Q18.04 14.68 17.26 14.66L17.26 14.66L15.70 14.66ZM30.27 22L24.69 22L24.69 13.47L30.23 13.47L30.23 14.66L26.18 14.66L26.18 17.02L29.68 17.02L29.68 18.19L26.18 18.19L26.18 20.82L30.27 20.82L30.27 22ZM36.92 22L34.47 22L34.47 13.47L36.99 13.47Q38.12 13.47 38.99 13.97Q39.87 14.48 40.35 15.40Q40.83 16.33 40.83 17.52L40.83 17.52L40.83 17.95Q40.83 19.16 40.35 20.08Q39.86 21.00 38.97 21.50Q38.08 22 36.92 22L36.92 22ZM35.95 14.66L35.95 20.82L36.92 20.82Q38.08 20.82 38.71 20.09Q39.33 19.36 39.34 17.99L39.34 17.99L39.34 17.52Q39.34 16.13 38.74 15.40Q38.14 14.66 36.99 14.66L36.99 14.66L35.95 14.66ZM47.75 22L45.30 22L45.30 13.47L47.81 13.47Q48.95 13.47 49.82 13.97Q50.70 14.48 51.18 15.40Q51.66 16.33 51.66 17.52L51.66 17.52L51.66 17.95Q51.66 19.16 51.18 20.08Q50.69 21.00 49.80 21.50Q48.90 22 47.75 22L47.75 22ZM46.78 14.66L46.78 20.82L47.74 20.82Q48.91 20.82 49.53 20.09Q50.16 19.36 50.17 17.99L50.17 17.99L50.17 17.52Q50.17 16.13 49.57 15.40Q48.96 14.66 47.81 14.66L47.81 14.66L46.78 14.66ZM57.69 22L56.21 22L56.21 13.47L57.69 13.47L57.69 22ZM64.18 14.66L61.54 14.66L61.54 13.47L68.31 13.47L68.31 14.66L65.65 14.66L65.65 22L64.18 22L64.18 14.66Z" fill="#FFFFFF"/><path class="svg__text" d="M96.66 22L94.28 22L94.28 13.60L96.66 13.60L96.66 22ZM103.25 22L100.82 22L104.53 13.60L106.88 13.60L110.59 22L108.12 22L107.46 20.37L103.91 20.37L103.25 22ZM105.69 15.93L104.60 18.61L106.76 18.61L105.69 15.93ZM116.94 22L114.74 22L114.74 13.60L116.70 13.60L119.65 18.45L122.54 13.60L124.49 13.60L124.51 22L122.33 22L122.31 17.55L120.15 21.17L119.09 21.17L116.94 17.67L116.94 22ZM131.09 22L128.67 22L132.38 13.60L134.72 13.60L138.43 22L135.97 22L135.31 20.37L131.75 20.37L131.09 22ZM133.53 15.93L132.45 18.61L134.61 18.61L133.53 15.93ZM147.13 22L142.59 22L142.59 13.60L146.89 13.60Q148.49 13.60 149.34 14.19Q150.18 14.79 150.18 15.79L150.18 15.79Q150.18 16.39 149.88 16.87Q149.58 17.34 149.05 17.62L149.05 17.62Q149.77 17.87 150.17 18.41Q150.58 18.94 150.58 19.70L150.58 19.70Q150.58 20.80 149.69 21.40Q148.81 22 147.13 22L147.13 22ZM144.94 18.58L144.94 20.28L146.94 20.28Q148.18 20.28 148.18 19.43L148.18 19.43Q148.18 18.58 146.94 18.58L146.94 18.58L144.94 18.58ZM144.94 15.31L144.94 16.94L146.57 16.94Q147.77 16.94 147.77 16.12L147.77 16.12Q147.77 15.31 146.57 15.31L146.57 15.31L144.94 15.31ZM157.68 22L155.30 22L155.30 13.60L157.68 13.60L157.68 16.76L160.92 16.76L160.92 13.60L163.29 13.60L163.29 22L160.92 22L160.92 18.72L157.68 18.72L157.68 22ZM170.83 22L168.45 22L168.45 13.60L170.83 13.60L170.83 22ZM175.36 16.30L175.36 16.30Q175.36 15.45 175.80 14.80Q176.23 14.14 176.98 13.79Q177.73 13.43 178.65 13.43L178.65 13.43Q180.46 13.43 181.50 14.50Q182.55 15.57 182.55 17.57L182.55 17.57Q182.55 19.01 181.99 20.05Q181.43 21.09 180.42 21.63Q179.40 22.17 178.07 22.17L178.07 22.17Q177.36 22.17 176.72 22.01Q176.07 21.84 175.61 21.55L175.61 21.55L176.47 19.85Q177.08 20.28 178.02 20.28L178.02 20.28Q178.92 20.28 179.48 19.79Q180.04 19.29 180.14 18.34L180.14 18.34Q179.41 18.95 178.25 18.95L178.25 18.95Q177.46 18.95 176.80 18.62Q176.14 18.29 175.75 17.68Q175.36 17.08 175.36 16.30ZM177.66 16.19L177.66 16.19Q177.66 16.67 177.98 16.96Q178.30 17.25 178.82 17.25L178.82 17.25Q179.33 17.25 179.65 16.96Q179.98 16.66 179.98 16.18L179.98 16.18Q179.98 15.71 179.66 15.42Q179.34 15.12 178.81 15.12L178.81 15.12Q178.30 15.12 177.98 15.41Q177.66 15.70 177.66 16.19ZM189.86 22L186.27 13.60L188.84 13.60L191.12 19.07L193.45 13.60L195.80 13.60L192.20 22L189.86 22Z" fill="#FFFFFF" x="93.09"/></svg>