<svg xmlns="http://www.w3.org/2000/svg" width="203.26" height="35" viewBox="0 0 203.26 35"><rect class="svg__rect" x="0" y="0" width="77.74000000000001" height="35" fill="#2A475E"/><rect class="svg__rect" x="75.74000000000001" y="0" width="127.51999999999998" height="35" fill="#A5A2A2"/><path class="svg__text" d="M13.78 19.42L13.78 19.42L15.27 19.42Q15.27 20.15 15.75 20.55Q16.23 20.95 17.12 20.95L17.12 20.95Q17.90 20.95 18.29 20.63Q18.68 20.32 18.68 19.80L18.68 19.80Q18.68 19.24 18.28 18.94Q17.89 18.63 16.85 18.32Q15.82 18.01 15.21 17.63L15.21 17.63Q14.05 16.90 14.05 15.72L14.05 15.72Q14.05 14.69 14.89 14.02Q15.73 13.35 17.07 13.35L17.07 13.35Q17.96 13.35 18.66 13.68Q19.36 14.01 19.75 14.61Q20.15 15.22 20.15 15.96L20.15 15.96L18.68 15.96Q18.68 15.29 18.26 14.91Q17.84 14.54 17.06 14.54L17.06 14.54Q16.33 14.54 15.93 14.85Q15.53 15.16 15.53 15.71L15.53 15.71Q15.53 16.18 15.96 16.50Q16.40 16.81 17.39 17.10Q18.39 17.40 18.99 17.78Q19.60 18.16 19.88 18.65Q20.16 19.13 20.16 19.79L20.16 19.79Q20.16 20.86 19.34 21.49Q18.52 22.12 17.12 22.12L17.12 22.12Q16.20 22.12 15.42 21.77Q14.64 21.43 14.21 20.83Q13.78 20.22 13.78 19.42ZM26.13 14.66L23.49 14.66L23.49 13.47L30.26 13.47L30.26 14.66L27.60 14.66L27.60 22L26.13 22L26.13 14.66ZM39.59 22L34.02 22L34.02 13.47L39.55 13.47L39.55 14.66L35.50 14.66L35.50 17.02L39.00 17.02L39.00 18.19L35.50 18.19L35.50 20.82L39.59 20.82L39.59 22ZM44.57 22L43.03 22L46.25 13.47L47.58 13.47L50.81 22L49.26 22L48.56 20.01L45.26 20.01L44.57 22ZM46.91 15.28L45.68 18.82L48.15 18.82L46.91 15.28ZM56.24 22L54.76 22L54.76 13.47L56.69 13.47L59.15 20.01L61.60 13.47L63.52 13.47L63.52 22L62.04 22L62.04 19.19L62.19 15.43L59.67 22L58.61 22L56.09 15.43L56.24 19.19L56.24 22Z" fill="#FFFFFF"/><path class="svg__text" d="M92.31 22L89.93 22L89.93 13.60L92.31 13.60L92.31 22ZM98.90 22L96.47 22L100.18 13.60L102.53 13.60L106.24 22L103.77 22L103.11 20.37L99.56 20.37L98.90 22ZM101.34 15.93L100.25 18.61L102.41 18.61L101.34 15.93ZM112.59 22L110.39 22L110.39 13.60L112.35 13.60L115.30 18.45L118.19 13.60L120.14 13.60L120.16 22L117.98 22L117.96 17.55L115.80 21.17L114.74 21.17L112.59 17.67L112.59 22ZM126.74 22L124.32 22L128.03 13.60L130.37 13.60L134.08 22L131.62 22L130.96 20.37L127.40 20.37L126.74 22ZM129.18 15.93L128.10 18.61L130.26 18.61L129.18 15.93ZM142.78 22L138.24 22L138.24 13.60L142.54 13.60Q144.14 13.60 144.99 14.19Q145.83 14.79 145.83 15.79L145.83 15.79Q145.83 16.39 145.53 16.87Q145.23 17.34 144.70 17.62L144.70 17.62Q145.42 17.87 145.82 18.41Q146.23 18.94 146.23 19.70L146.23 19.70Q146.23 20.80 145.34 21.40Q144.46 22 142.78 22L142.78 22ZM140.59 18.58L140.59 20.28L142.59 20.28Q143.83 20.28 143.83 19.43L143.83 19.43Q143.83 18.58 142.59 18.58L142.59 18.58L140.59 18.58ZM140.59 15.31L140.59 16.94L142.22 16.94Q143.42 16.94 143.42 16.12L143.42 16.12Q143.42 15.31 142.22 15.31L142.22 15.31L140.59 15.31ZM153.33 22L150.95 22L150.95 13.60L153.33 13.60L153.33 16.76L156.57 16.76L156.57 13.60L158.94 13.60L158.94 22L156.57 22L156.57 18.72L153.33 18.72L153.33 22ZM166.48 22L164.10 22L164.10 13.60L166.48 13.60L166.48 22ZM171.01 16.30L171.01 16.30Q171.01 15.45 171.45 14.80Q171.88 14.14 172.63 13.79Q173.38 13.43 174.30 13.43L174.30 13.43Q176.11 13.43 177.15 14.50Q178.20 15.57 178.20 17.57L178.20 17.57Q178.20 19.01 177.64 20.05Q177.08 21.09 176.07 21.63Q175.05 22.17 173.72 22.17L173.72 22.17Q173.01 22.17 172.37 22.01Q171.72 21.84 171.26 21.55L171.26 21.55L172.12 19.85Q172.73 20.28 173.67 20.28L173.67 20.28Q174.57 20.28 175.13 19.79Q175.69 19.29 175.79 18.34L175.79 18.34Q175.06 18.95 173.90 18.95L173.90 18.95Q173.11 18.95 172.45 18.62Q171.79 18.29 171.40 17.68Q171.01 17.08 171.01 16.30ZM173.31 16.19L173.31 16.19Q173.31 16.67 173.63 16.96Q173.95 17.25 174.47 17.25L174.47 17.25Q174.98 17.25 175.30 16.96Q175.63 16.66 175.63 16.18L175.63 16.18Q175.63 15.71 175.31 15.42Q174.99 15.12 174.46 15.12L174.46 15.12Q173.95 15.12 173.63 15.41Q173.31 15.70 173.31 16.19ZM185.51 22L181.92 13.60L184.49 13.60L186.77 19.07L189.10 13.60L191.45 13.60L187.85 22L185.51 22Z" fill="#FFFFFF" x="88.74000000000001"/></svg>