<svg xmlns="http://www.w3.org/2000/svg" width="211.13" height="35" viewBox="0 0 211.13 35"><rect class="svg__rect" x="0" y="0" width="85.61" height="35" fill="#6441A5"/><rect class="svg__rect" x="83.61" y="0" width="127.52" height="35" fill="#A5A2A2"/><path class="svg__text" d="M16.25 14.66L13.61 14.66L13.61 13.47L20.38 13.47L20.38 14.66L17.72 14.66L17.72 22L16.25 22L16.25 14.66ZM25.52 22L23.55 13.47L25.02 13.47L26.35 19.88L27.98 13.47L29.22 13.47L30.83 19.89L32.14 13.47L33.61 13.47L31.64 22L30.23 22L28.60 15.77L26.94 22L25.52 22ZM39.25 22L37.77 22L37.77 13.47L39.25 13.47L39.25 22ZM45.74 14.66L43.10 14.66L43.10 13.47L49.87 13.47L49.87 14.66L47.21 14.66L47.21 22L45.74 22L45.74 14.66ZM53.36 18.19L53.36 18.19L53.36 17.39Q53.36 16.19 53.79 15.27Q54.21 14.35 55.01 13.85Q55.81 13.35 56.86 13.35L56.86 13.35Q58.27 13.35 59.14 14.12Q60.00 14.89 60.14 16.29L60.14 16.29L58.66 16.29Q58.56 15.37 58.12 14.96Q57.69 14.55 56.86 14.55L56.86 14.55Q55.89 14.55 55.38 15.26Q54.86 15.96 54.85 17.33L54.85 17.33L54.85 18.09Q54.85 19.47 55.34 20.20Q55.84 20.92 56.79 20.92L56.79 20.92Q57.66 20.92 58.10 20.53Q58.54 20.14 58.66 19.22L58.66 19.22L60.14 19.22Q60.01 20.59 59.13 21.35Q58.25 22.12 56.79 22.12L56.79 22.12Q55.77 22.12 55.00 21.63Q54.22 21.15 53.80 20.26Q53.38 19.37 53.36 18.19ZM65.93 22L64.45 22L64.45 13.47L65.93 13.47L65.93 17.02L69.75 17.02L69.75 13.47L71.22 13.47L71.22 22L69.75 22L69.75 18.21L65.93 18.21L65.93 22Z" fill="#FFFFFF"/><path class="svg__text" d="M100.18 22L97.80 22L97.80 13.60L100.18 13.60L100.18 22ZM106.77 22L104.34 22L108.05 13.60L110.40 13.60L114.11 22L111.64 22L110.98 20.37L107.43 20.37L106.77 22ZM109.21 15.93L108.12 18.61L110.28 18.61L109.21 15.93ZM120.46 22L118.26 22L118.26 13.60L120.22 13.60L123.17 18.45L126.06 13.60L128.01 13.60L128.03 22L125.85 22L125.83 17.55L123.67 21.17L122.61 21.17L120.46 17.67L120.46 22ZM134.61 22L132.19 22L135.90 13.60L138.24 13.60L141.95 22L139.49 22L138.83 20.37L135.27 20.37L134.61 22ZM137.05 15.93L135.97 18.61L138.13 18.61L137.05 15.93ZM150.65 22L146.11 22L146.11 13.60L150.41 13.60Q152.01 13.60 152.86 14.19Q153.70 14.79 153.70 15.79L153.70 15.79Q153.70 16.39 153.40 16.87Q153.10 17.34 152.57 17.62L152.57 17.62Q153.29 17.87 153.69 18.41Q154.10 18.94 154.10 19.70L154.10 19.70Q154.10 20.80 153.21 21.40Q152.33 22 150.65 22L150.65 22ZM148.46 18.58L148.46 20.28L150.46 20.28Q151.70 20.28 151.70 19.43L151.70 19.43Q151.70 18.58 150.46 18.58L150.46 18.58L148.46 18.58ZM148.46 15.31L148.46 16.94L150.09 16.94Q151.29 16.94 151.29 16.12L151.29 16.12Q151.29 15.31 150.09 15.31L150.09 15.31L148.46 15.31ZM161.20 22L158.82 22L158.82 13.60L161.20 13.60L161.20 16.76L164.44 16.76L164.44 13.60L166.81 13.60L166.81 22L164.44 22L164.44 18.72L161.20 18.72L161.20 22ZM174.35 22L171.97 22L171.97 13.60L174.35 13.60L174.35 22ZM178.88 16.30L178.88 16.30Q178.88 15.45 179.32 14.80Q179.75 14.14 180.50 13.79Q181.25 13.43 182.17 13.43L182.17 13.43Q183.98 13.43 185.02 14.50Q186.07 15.57 186.07 17.57L186.07 17.57Q186.07 19.01 185.51 20.05Q184.95 21.09 183.94 21.63Q182.92 22.17 181.59 22.17L181.59 22.17Q180.88 22.17 180.24 22.01Q179.59 21.84 179.13 21.55L179.13 21.55L179.99 19.85Q180.60 20.28 181.54 20.28L181.54 20.28Q182.44 20.28 183.00 19.79Q183.56 19.29 183.66 18.34L183.66 18.34Q182.93 18.95 181.77 18.95L181.77 18.95Q180.98 18.95 180.32 18.62Q179.66 18.29 179.27 17.68Q178.88 17.08 178.88 16.30ZM181.18 16.19L181.18 16.19Q181.18 16.67 181.50 16.96Q181.82 17.25 182.34 17.25L182.34 17.25Q182.85 17.25 183.17 16.96Q183.50 16.66 183.50 16.18L183.50 16.18Q183.50 15.71 183.18 15.42Q182.86 15.12 182.33 15.12L182.33 15.12Q181.82 15.12 181.50 15.41Q181.18 15.70 181.18 16.19ZM193.38 22L189.79 13.60L192.36 13.60L194.64 19.07L196.97 13.60L199.32 13.60L195.72 22L193.38 22Z" fill="#FFFFFF" x="96.61"/></svg>