<svg xmlns="http://www.w3.org/2000/svg" width="219.31" height="35" viewBox="0 0 219.31 35"><rect class="svg__rect" x="0" y="0" width="93.79" height="35" fill="#00ACED"/><rect class="svg__rect" x="91.79" y="0" width="127.52" height="35" fill="#A5A2A2"/><path class="svg__text" d="M16.25 14.66L13.61 14.66L13.61 13.47L20.38 13.47L20.38 14.66L17.72 14.66L17.72 22L16.25 22L16.25 14.66ZM25.52 22L23.55 13.47L25.02 13.47L26.35 19.88L27.98 13.47L29.22 13.47L30.83 19.89L32.14 13.47L33.61 13.47L31.64 22L30.23 22L28.60 15.77L26.94 22L25.52 22ZM39.25 22L37.77 22L37.77 13.47L39.25 13.47L39.25 22ZM45.74 14.66L43.10 14.66L43.10 13.47L49.87 13.47L49.87 14.66L47.21 14.66L47.21 22L45.74 22L45.74 14.66ZM55.31 14.66L52.67 14.66L52.67 13.47L59.44 13.47L59.44 14.66L56.78 14.66L56.78 22L55.31 22L55.31 14.66ZM68.77 22L63.20 22L63.20 13.47L68.73 13.47L68.73 14.66L64.68 14.66L64.68 17.02L68.18 17.02L68.18 18.19L64.68 18.19L64.68 20.82L68.77 20.82L68.77 22ZM74.45 22L72.97 22L72.97 13.47L75.97 13.47Q77.45 13.47 78.25 14.13Q79.05 14.79 79.05 16.05L79.05 16.05Q79.05 16.90 78.64 17.48Q78.22 18.06 77.49 18.37L77.49 18.37L79.40 21.92L79.40 22L77.81 22L76.10 18.71L74.45 18.71L74.45 22ZM74.45 14.66L74.45 17.52L75.97 17.52Q76.72 17.52 77.15 17.15Q77.57 16.77 77.57 16.11L77.57 16.11Q77.57 15.43 77.18 15.05Q76.79 14.68 76.02 14.66L76.02 14.66L74.45 14.66Z" fill="#FFFFFF"/><path class="svg__text" d="M108.36 22L105.98 22L105.98 13.60L108.36 13.60L108.36 22ZM114.95 22L112.52 22L116.23 13.60L118.58 13.60L122.29 22L119.82 22L119.16 20.37L115.61 20.37L114.95 22ZM117.39 15.93L116.30 18.61L118.46 18.61L117.39 15.93ZM128.64 22L126.44 22L126.44 13.60L128.40 13.60L131.35 18.45L134.24 13.60L136.19 13.60L136.21 22L134.03 22L134.01 17.55L131.85 21.17L130.79 21.17L128.64 17.67L128.64 22ZM142.79 22L140.37 22L144.08 13.60L146.42 13.60L150.13 22L147.67 22L147.01 20.37L143.45 20.37L142.79 22ZM145.23 15.93L144.15 18.61L146.31 18.61L145.23 15.93ZM158.83 22L154.29 22L154.29 13.60L158.59 13.60Q160.19 13.60 161.04 14.19Q161.88 14.79 161.88 15.79L161.88 15.79Q161.88 16.39 161.58 16.87Q161.28 17.34 160.75 17.62L160.75 17.62Q161.47 17.87 161.87 18.41Q162.28 18.94 162.28 19.70L162.28 19.70Q162.28 20.80 161.39 21.40Q160.51 22 158.83 22L158.83 22ZM156.64 18.58L156.64 20.28L158.64 20.28Q159.88 20.28 159.88 19.43L159.88 19.43Q159.88 18.58 158.64 18.58L158.64 18.58L156.64 18.58ZM156.64 15.31L156.64 16.94L158.27 16.94Q159.47 16.94 159.47 16.12L159.47 16.12Q159.47 15.31 158.27 15.31L158.27 15.31L156.64 15.31ZM169.38 22L167.00 22L167.00 13.60L169.38 13.60L169.38 16.76L172.62 16.76L172.62 13.60L174.99 13.60L174.99 22L172.62 22L172.62 18.72L169.38 18.72L169.38 22ZM182.53 22L180.15 22L180.15 13.60L182.53 13.60L182.53 22ZM187.06 16.30L187.06 16.30Q187.06 15.45 187.50 14.80Q187.93 14.14 188.68 13.79Q189.43 13.43 190.35 13.43L190.35 13.43Q192.16 13.43 193.20 14.50Q194.25 15.57 194.25 17.57L194.25 17.57Q194.25 19.01 193.69 20.05Q193.13 21.09 192.12 21.63Q191.10 22.17 189.77 22.17L189.77 22.17Q189.06 22.17 188.42 22.01Q187.77 21.84 187.31 21.55L187.31 21.55L188.17 19.85Q188.78 20.28 189.72 20.28L189.72 20.28Q190.62 20.28 191.18 19.79Q191.74 19.29 191.84 18.34L191.84 18.34Q191.11 18.95 189.95 18.95L189.95 18.95Q189.16 18.95 188.50 18.62Q187.84 18.29 187.45 17.68Q187.06 17.08 187.06 16.30ZM189.36 16.19L189.36 16.19Q189.36 16.67 189.68 16.96Q190.00 17.25 190.52 17.25L190.52 17.25Q191.03 17.25 191.35 16.96Q191.68 16.66 191.68 16.18L191.68 16.18Q191.68 15.71 191.36 15.42Q191.04 15.12 190.51 15.12L190.51 15.12Q190.00 15.12 189.68 15.41Q189.36 15.70 189.36 16.19ZM201.56 22L197.97 13.60L200.54 13.60L202.82 19.07L205.15 13.60L207.50 13.60L203.90 22L201.56 22Z" fill="#FFFFFF" x="104.79"/></svg>